<svg width="128" height="128" viewBox="0 0 128 128" fill="none" xmlns="http://www.w3.org/2000/svg">
<path d="M4 102.675V114.395C4 115.086 4.27605 115.749 4.76743 116.237C5.25881 116.726 5.92527 117 6.62018 117H122.38C123.075 117 123.741 116.726 124.233 116.237C124.724 115.749 125 115.086 125 114.395V102.675C124.992 98.3665 123.699 94.1572 121.286 90.5785C118.873 86.9998 115.447 84.2122 111.441 82.5676C114.677 80.7115 117.21 77.8489 118.648 74.4208C120.087 70.9928 120.351 67.1896 119.401 63.5974C118.451 60.0052 116.338 56.8234 113.389 54.5423C110.44 52.2612 106.819 51.0074 103.082 50.9742C102.781 50.9742 102.48 50.9742 102.178 50.9742C99.7741 47.2533 96.281 44.3537 92.1691 42.6656C95.4437 40.8246 98.0129 37.9576 99.4756 34.5122C100.938 31.0668 101.212 27.2369 100.255 23.6204C99.2972 20.004 97.1619 16.8044 94.1824 14.5213C91.2028 12.2382 87.5466 11 83.7845 11C80.0225 11 76.3663 12.2382 73.3867 14.5213C70.4071 16.8044 68.2719 20.004 67.3143 23.6204C66.3567 27.2369 66.6307 31.0668 68.0934 34.5122C69.5562 37.9576 72.1254 40.8246 75.3999 42.6656C71.2815 44.376 67.7918 47.3039 65.404 51.0524C65.1026 51.0524 64.8013 51.0524 64.5 51.0524C64.1987 51.0524 63.9105 51.0524 63.6222 51.0524L63.3864 50.7007C60.9736 47.1502 57.5601 44.3868 53.5738 42.7568C56.8512 40.918 59.4235 38.0519 60.8891 34.6063C62.3546 31.1607 62.6308 27.3296 61.6745 23.7115C60.7182 20.0934 58.5832 16.892 55.6032 14.6074C52.6231 12.3229 48.9657 11.0838 45.2024 11.0838C41.439 11.0838 37.7816 12.3229 34.8016 14.6074C31.8215 16.892 29.6865 20.0934 28.7302 23.7115C27.7739 27.3296 28.0501 31.1607 29.5156 34.6063C30.9812 38.0519 33.5535 40.918 36.8309 42.7568C32.7168 44.4406 29.2196 47.3353 26.8087 51.0524C26.5074 51.0524 26.2191 51.0524 25.9047 51.0524C22.1683 51.0856 18.5465 52.3393 15.5975 54.6204C12.6486 56.9015 10.5362 60.0833 9.58584 63.6755C8.63548 67.2677 8.89994 71.0709 10.3385 74.499C11.777 77.927 14.3097 80.7897 17.5463 82.6458C13.5551 84.2872 10.1404 87.0637 7.73046 90.6269C5.32055 94.1901 4.0228 98.3813 4 102.675ZM47.8225 102.675C47.9442 98.3602 49.754 94.2629 52.8671 91.2539C55.9803 88.2449 60.1512 86.5614 64.4934 86.5614C68.8356 86.5614 73.0066 88.2449 76.1198 91.2539C79.2329 94.2629 81.0427 98.3602 81.1644 102.675V111.791H47.8225V102.675ZM64.5 56.1833C66.832 56.1833 69.1116 56.8707 71.0506 58.1586C72.9896 59.4465 74.5009 61.277 75.3933 63.4186C76.2857 65.5603 76.5192 67.9169 76.0643 70.1905C75.6093 72.464 74.4863 74.5524 72.8374 76.1916C71.1884 77.8307 69.0875 78.947 66.8003 79.3993C64.5131 79.8515 62.1423 79.6194 59.9879 78.7323C57.8334 77.8452 55.9919 76.3429 54.6963 74.4155C53.4007 72.4881 52.7092 70.222 52.7092 67.9039C52.7092 64.7954 53.9514 61.8142 56.1626 59.6162C58.3738 57.4182 61.3729 56.1833 64.5 56.1833ZM119.76 102.675V111.791H86.4178V102.675C86.5395 98.3602 88.3493 94.2629 91.4624 91.2539C94.5755 88.2449 98.7465 86.5614 103.089 86.5614C107.431 86.5614 111.602 88.2449 114.715 91.2539C117.828 94.2629 119.638 98.3602 119.76 102.675ZM114.847 67.8648C114.847 70.1829 114.155 72.449 112.86 74.3764C111.564 76.3039 109.723 77.8061 107.568 78.6932C105.414 79.5803 103.043 79.8124 100.756 79.3602C98.4685 78.9079 96.3676 77.7917 94.7186 76.1525C93.0696 74.5134 91.9467 72.425 91.4917 70.1514C91.0368 67.8778 91.2703 65.5212 92.1627 63.3796C93.0551 61.2379 94.5664 59.4074 96.5053 58.1196C98.4443 56.8317 100.724 56.1443 103.056 56.1443C106.183 56.1443 109.182 57.3791 111.393 59.5772C113.605 61.7752 114.847 64.7563 114.847 67.8648ZM83.7976 16.3335C86.1296 16.3335 88.4093 17.0209 90.3483 18.3087C92.2873 19.5966 93.7985 21.4271 94.6909 23.5688C95.5834 25.7104 95.8168 28.067 95.3619 30.3406C94.907 32.6142 93.784 34.7026 92.135 36.3417C90.486 37.9809 88.3851 39.0971 86.0979 39.5494C83.8107 40.0016 81.44 39.7695 79.2855 38.8824C77.131 37.9953 75.2895 36.493 73.9939 34.5656C72.6983 32.6382 72.0068 30.3721 72.0068 28.054C72.0068 24.9455 73.2491 21.9644 75.4603 19.7663C77.6715 17.5683 80.6705 16.3335 83.7976 16.3335ZM83.7976 46.286C86.243 46.2794 88.6595 46.8121 90.8728 47.8457C93.0861 48.8794 95.0412 50.3882 96.5972 52.2635C93.6663 53.484 91.1373 55.4953 89.2962 58.07C87.4551 60.6446 86.3754 63.6799 86.1791 66.8327C85.9829 69.9855 86.6779 73.13 88.1856 75.9107C89.6932 78.6913 91.9535 80.9972 94.7107 82.5676C90.0455 84.4947 86.1881 87.9567 83.7845 92.3738C81.381 87.9567 77.5236 84.4947 72.8584 82.5676C75.6161 80.9983 77.8771 78.6934 79.3858 75.9135C80.8945 73.1336 81.5908 69.9895 81.3959 66.8368C81.201 63.6841 80.1227 60.6484 78.2829 58.0731C76.4431 55.4977 73.9152 53.4853 70.9849 52.2635C72.5405 50.3834 74.497 48.8706 76.7129 47.8346C78.9289 46.7985 81.3488 46.2651 83.7976 46.273V46.286ZM45.2024 16.3335C47.5344 16.3335 49.814 17.0209 51.753 18.3087C53.692 19.5966 55.2032 21.4271 56.0957 23.5688C56.9881 25.7104 57.2216 28.067 56.7666 30.3406C56.3117 32.6142 55.1887 34.7026 53.5397 36.3417C51.8908 37.9809 49.7898 39.0971 47.5026 39.5494C45.2154 40.0016 42.8447 39.7695 40.6902 38.8824C38.5357 37.9953 36.6942 36.493 35.3987 34.5656C34.1031 32.6382 33.4115 30.3721 33.4115 28.054C33.4115 26.5149 33.7165 24.9908 34.3091 23.5688C34.9016 22.1468 35.7701 20.8547 36.865 19.7663C39.0762 17.5683 42.0752 16.3335 45.2024 16.3335ZM45.2024 46.286C47.6367 46.2927 50.0399 46.8303 52.2424 47.8608C54.4449 48.8914 56.3931 50.3898 57.9495 52.2505C55.0193 53.4723 52.4914 55.4847 50.6516 58.0601C48.8118 60.6354 47.7335 63.6711 47.5386 66.8238C47.3437 69.9765 48.04 73.1205 49.5487 75.9005C51.0574 78.6804 53.3184 80.9853 56.0761 82.5546C51.4109 84.4817 47.5535 87.9437 45.15 92.3608C42.7464 87.9437 38.889 84.4817 34.2238 82.5546C36.981 80.9842 39.2412 78.6783 40.7489 75.8976C42.2566 73.117 42.9516 69.9725 42.7553 66.8197C42.5591 63.6669 41.4794 60.6316 39.6383 58.0569C37.7972 55.4823 35.2682 53.471 32.3373 52.2505C33.9029 50.3663 35.8709 48.8524 38.0984 47.8185C40.3259 46.7845 42.7571 46.2566 45.2155 46.273L45.2024 46.286ZM25.9178 56.1833C28.2498 56.1833 30.5295 56.8707 32.4684 58.1586C34.4074 59.4465 35.9187 61.277 36.8111 63.4186C37.7035 65.5603 37.937 67.9169 37.4821 70.1905C37.0271 72.464 35.9042 74.5524 34.2552 76.1916C32.6062 77.8307 30.5053 78.947 28.2181 79.3993C25.9309 79.8515 23.5602 79.6194 21.4057 78.7323C19.2512 77.8452 17.4097 76.3429 16.1141 74.4155C14.8185 72.4881 14.127 70.222 14.127 67.9039C14.127 64.7954 15.3692 61.8142 17.5805 59.6162C19.7917 57.4182 22.7907 56.1833 25.9178 56.1833ZM25.9178 86.1359C30.3319 86.1393 34.5646 87.8821 37.6882 90.9823C40.8119 94.0824 42.5718 98.2871 42.5822 102.675V111.791H9.24036V102.675C9.2473 98.2814 11.007 94.0701 14.1335 90.9646C17.26 87.8592 21.498 86.1133 25.9178 86.1098V86.1359Z" fill="#151515"/>
</svg>
